<svg viewBox="0 0 72 72" xmlns="http://www.w3.org/2000/svg"><g style="fill:none;stroke:#000;stroke-linecap:round;stroke-linejoin:round;stroke-miterlimit:10;stroke-width:2"><path d="m38.8294 54.5013h-5.5367c-4.9688 0-9.0342-4.0654-9.0342-9.0342v-19.0871c0-4.9688 4.0654-9.0342 9.0342-9.0342h5.5367c4.9688 0 9.0342 4.0654 9.0342 9.0342v19.0871c0 4.9688-4.0654 9.0342-9.0342 9.0342z"/><path d="m36.1449 32.1553h-.1677c-1.1161 0-2.0294-.9132-2.0294-2.0294v-6.0465c0-1.1161.9132-2.0294 2.0294-2.0294h.1677c1.1161 0 2.0294.9132 2.0294 2.0294v6.0465c0 1.1162-.9132 2.0294-2.0294 2.0294z"/><path d="m41.3312 60.0161-5.2157 5.2157"/><path d="m30.8574 60.0161 5.2156 5.2157"/><path d="m30.8574 11.892 5.2156-5.2157"/><path d="m41.3312 11.892-5.2157-5.2157"/></g></svg>